:SAMPLES-PER-SECOND 30
:FULLY-SPECIFIED
:DEGREES
220
root  37.2134 37.9043 3.01536 175.396 40.5817 -175.32
RightUpLeg  -2.25879 -28.3573 0.154467
RightLeg  35.1873 -3.30401 -2.7797
RightFoot  -21.09 -0.220336 -0.9151
RightToes  0.00048216 0.542163 -0.142577
Spine  24.4498 0.174512 22.0877
Spine1  11.28 8.72078 -13.5485
HEad  12.1175 52.7042 -16.6971
LeftShoulder1  8.54567 -12.1505 -47.6423
LeftArm  -9.54784 27.0273 -29.1319
LeftForeArm  22.5137 -11.4555 -5.28424
LeftHand  -0.25398 0.0180481 5.50724
RightShoulder  5.15559 9.83073 32.7216
RightArm  -10.3623 -14.3686 29.5571
RightForeArm  2.69277 35.0897 7.74137
RightHand  -0.342627 -2.65114 -13.926
LeftUpLeg  -29.7816 35.304 -18.4383
LeftLeg  18.1001 1.02603 0.766899
LeftFoot  5.79477 0.161708 -1.26876
LeftToes  1.06246e-005 4.65855e-005 -8.18505e-006
221
root  35.8642 38.5484 3.44735 174.691 41.8315 -177.262
RightUpLeg  -3.54339 -28.4612 -1.61614
RightLeg  31.4119 -1.74814 -1.41827
RightFoot  -16.9287 -0.168002 -1.03959
RightToes  0.00048216 0.542163 -0.142577
Spine  24.5993 0.325941 21.293
Spine1  10.3735 8.66677 -13.8101
HEad  14.0874 51.6462 -15.4953
LeftShoulder1  8.46791 -12.0314 -47.5687
LeftArm  -7.19849 24.4908 -28.7805
LeftForeArm  21.3859 -16.7981 -4.58249
LeftHand  -0.25398 0.0180481 5.50724
RightShoulder  5.15138 9.8693 32.5786
RightArm  -10.0543 -14.5052 31.5492
RightForeArm  -1.25811 36.7582 8.45746
RightHand  -0.457789 -1.91973 -15.0223
LeftUpLeg  -27.5925 29.3867 -13.4171
LeftLeg  20.9759 3.90657 1.97509
LeftFoot  3.38536 -0.153164 0.985312
LeftToes  1.06246e-005 4.65855e-005 -8.18505e-006
222
root  34.5932 39.1325 3.7992 173.815 43.0509 -179.554
RightUpLeg  -4.37303 -29.1271 -3.63518
RightLeg  27.0706 0.268579 -0.129307
RightFoot  -13.0179 -0.0900324 -0.0724017
RightToes  0.00048216 0.542163 -0.142577
Spine  24.289 0.451047 19.9496
Spine1  9.53771 8.44617 -14.2009
HEad  15.8058 51.0487 -14.3859
LeftShoulder1  8.28628 -11.8324 -47.1429
LeftArm  -6.39074 22.253 -28.0478
LeftForeArm  21.3924 -22.7315 -3.89748
LeftHand  -0.25398 0.0180481 5.50724
RightShoulder  5.14173 9.89655 32.4279
RightArm  -8.14801 -15.1077 33.6073
RightForeArm  -2.50036 38.4135 9.0376
RightHand  -0.4161 -2.21616 -14.8036
LeftUpLeg  -25.1847 24.1613 -8.82954
LeftLeg  24.2128 5.50668 3.0194
LeftFoot  1.53316 -0.016053 0.0363033
LeftToes  1.06246e-005 4.65855e-005 -8.18505e-006
223
root  33.3715 39.5649 4.08405 172.972 44.1323 178.089
RightUpLeg  -5.15673 -29.1468 -5.79638
RightLeg  22.9189 1.44277 1.15883
RightFoot  -9.88687 -0.0889024 1.65437
RightToes  0.00048216 0.542163 -0.142577
Spine  23.2626 0.563545 18.3846
Spine1  9.00544 8.13313 -14.5572
HEad  17.5715 50.856 -13.1335
LeftShoulder1  8.03772 -11.6558 -46.2396
LeftArm  -9.02332 20.3356 -27.0309
LeftForeArm  24.4118 -28.2806 -4.75475
LeftHand  -0.25398 0.0180481 5.50724
RightShoulder  5.08058 9.86332 32.065
RightArm  -5.43267 -16.0373 35.8421
RightForeArm  -1.06445 39.3295 9.24542
RightHand  -0.341948 -2.77527 -14.5716
LeftUpLeg  -22.8004 19.7256 -5.00553
LeftLeg  28.0275 5.65136 3.5844
LeftFoot  -0.682837 0.127118 -1.29938
LeftToes  1.06246e-005 4.65855e-005 -8.18505e-006
224
root  32.1572 39.8266 4.32478 172.106 45.4133 176.104
RightUpLeg  -5.8054 -24.6424 -8.07068
RightLeg  19.4115 -1.35835 2.57013
RightFoot  -7.47491 -0.197191 4.3249
RightToes  0.00048216 0.542163 -0.142577
Spine  22.0264 0.677438 17.0815
Spine1  8.79156 7.95398 -14.9082
HEad  19.2362 50.8883 -11.9742
LeftShoulder1  7.81372 -11.5243 -45.3143
LeftArm  -11.228 18.3494 -25.6111
LeftForeArm  26.3343 -33.2659 -5.85964
LeftHand  -0.25398 0.0180481 5.50724
RightShoulder  5.03011 9.85871 31.6989
RightArm  -2.3952 -17.4313 37.7075
RightForeArm  0.498349 39.7312 9.28151
RightHand  -0.359378 -2.70237 -14.9399
LeftUpLeg  -19.8758 16.0052 -1.51367
LeftLeg  31.9337 5.92847 4.32132
LeftFoot  -2.91865 0.132118 -1.55197
LeftToes  1.06246e-005 4.65855e-005 -8.18505e-006
225
root  30.9106 39.9242 4.53272 171.25 46.7993 174.685
RightUpLeg  -6.60239 -20.5721 -9.97107
RightLeg  16.78 -3.76715 3.52733
RightFoot  -5.7478 -0.42041 7.80481
RightToes  0.00048216 0.542163 -0.142577
Spine  20.9395 0.646355 16.2914
Spine1  8.87118 7.8353 -15.235
HEad  20.1662 51.0893 -11.5162
LeftShoulder1  7.66318 -11.4222 -44.7217
LeftArm  -13.2716 16.0373 -23.763
LeftForeArm  27.4253 -37.5685 -6.9333
LeftHand  -0.25398 0.0180481 5.50724
RightShoulder  5.03452 9.895 31.6292
RightArm  0.55853 -19.1897 38.6616
RightForeArm  0.755958 39.994 9.3516
RightHand  -0.383543 -2.53711 -15.091
LeftUpLeg  -16.1393 12.1864 1.74275
LeftLeg  35.3595 6.80044 5.51533
LeftFoot  -4.68475 0.139405 -1.92562
LeftToes  1.06246e-005 4.65855e-005 -8.18505e-006
226
root  29.6014 39.8793 4.7059 170.457 48.0147 173.54
RightUpLeg  -7.83752 -19.2991 -11.5203
RightLeg  15.0248 -4.13254 4.05867
RightFoot  -4.31542 -0.724902 11.292
RightToes  0.00048216 0.542163 -0.142577
Spine  19.8839 0.377012 15.8769
Spine1  9.22932 7.60669 -15.6763
HEad  19.8601 51.5565 -12.4735
LeftShoulder1  7.60221 -11.3567 -44.5535
LeftArm  -15.4779 13.4254 -21.6524
LeftForeArm  28.1947 -41.0662 -7.91509
LeftHand  -0.25398 0.0180481 5.50724
RightShoulder  5.02477 9.83764 31.7183
RightArm  2.59418 -21.1034 39.0147
RightForeArm  0.401 39.8036 9.30976
RightHand  -0.365033 -2.6115 -14.7195
LeftUpLeg  -11.937 8.0848 4.03485
LeftLeg  37.8346 7.203 6.32119
LeftFoot  -6.37955 0.138808 -2.28771
LeftToes  1.06246e-005 4.65855e-005 -8.18505e-006
227
root  28.2268 39.7301 4.84638 169.367 49.2401 172.191
RightUpLeg  -9.55946 -20.1851 -12.788
RightLeg  13.9884 -2.2952 4.31995
RightFoot  -2.62747 -1.07592 13.8333
RightToes  0.00048216 0.542163 -0.142577
Spine  19.0164 -0.0152876 15.4358
Spine1  9.68788 7.27596 -16.2752
HEad  18.3344 52.4704 -15.0471
LeftShoulder1  7.61569 -11.3362 -44.7003
LeftArm  -17.5189 10.8144 -19.3932
LeftForeArm  28.6441 -43.7364 -8.75359
LeftHand  -0.25398 0.0180481 5.50724
RightShoulder  4.96599 9.68362 31.7127
RightArm  3.05609 -22.9462 39.2647
RightForeArm  0.152062 38.0769 8.77898
RightHand  -0.444175 -1.97066 -14.7345
LeftUpLeg  -7.26935 4.99074 4.91049
LeftLeg  38.9169 6.02623 5.56185
LeftFoot  -7.88703 0.104652 -1.92261
LeftToes  1.06246e-005 4.65855e-005 -8.18505e-006
228
root  26.8024 39.5082 4.95632 167.877 50.7301 170.718
RightUpLeg  -11.6003 -20.9906 -13.6201
RightLeg  13.4578 0.110561 4.17552
RightFoot  -0.78121 -1.42603 15.3022
RightToes  0.00048216 0.542163 -0.142577
Spine  18.518 -0.379698 14.7886
Spine1  10.071 6.87571 -16.6033
HEad  16.2 53.8128 -18.3517
LeftShoulder1  7.62665 -11.3286 -44.7913
LeftArm  -19.0518 8.67042 -17.2791
LeftForeArm  29.1339 -45.8058 -9.45152
LeftHand  -0.25398 0.0180481 5.50724
RightShoulder  4.93968 9.59908 31.7552
RightArm  2.32237 -24.4913 39.1705
RightForeArm  -0.659432 34.0825 7.65923
RightHand  -0.7078 -0.204245 -15.7677
LeftUpLeg  -1.95012 3.76083 4.92615
LeftLeg  38.2437 3.05673 2.97019
LeftFoot  -8.05602 0.12291 -2.47635
LeftToes  1.06246e-005 4.65855e-005 -8.18505e-006
229
root  25.3366 39.2336 5.03134 166.912 52.168 169.917
RightUpLeg  -13.5681 -20.3212 -14.15
RightLeg  12.6856 0.451772 3.86836
RightFoot  0.955457 -1.78739 16.5419
RightToes  0.00048216 0.542163 -0.142577
Spine  17.8273 -0.715519 14.2734
Spine1  10.4517 6.33013 -16.3043
HEad  14.6702 55.0513 -20.659
LeftShoulder1  7.53944 -11.2596 -44.4713
LeftArm  -19.849 7.20498 -15.7607
LeftForeArm  30.4173 -47.5196 -10.0086
LeftHand  -0.25398 0.0180481 5.50724
RightShoulder  4.97993 9.60547 32.0453
RightArm  1.61874 -25.8837 38.2
RightForeArm  -3.69066 28.6289 6.38141
RightHand  -1.01721 1.40017 -17.4743
LeftUpLeg  3.45222 3.40086 4.77285
LeftLeg  35.6127 -0.468974 0.0160067
LeftFoot  -7.37848 0.240253 -5.67704
LeftToes  1.06246e-005 4.65855e-005 -8.18505e-006
230
root  23.8463 38.9477 5.07872 167.26 53.0014 170.245
RightUpLeg  -14.7574 -19.298 -14.74
RightLeg  10.4215 -1.04471 4.04419
RightFoot  2.73357 -2.29359 18.5605
RightToes  0.00048216 0.542163 -0.142577
Spine  16.4485 -1.02626 13.9376
Spine1  10.7742 5.52539 -15.5269
HEad  14.608 55.6245 -21.1476
LeftShoulder1  7.3366 -11.0517 -43.863
LeftArm  -19.5962 6.1069 -14.9719
LeftForeArm  32.4981 -49.0208 -10.4584
LeftHand  -0.25398 0.0180481 5.50724
RightShoulder  4.99312 9.53463 32.3538
RightArm  1.73656 -27.7228 36.2537
RightForeArm  -9.27934 23.6687 5.62157
RightHand  -1.14053 1.61681 -18.9882
LeftUpLeg  8.07184 2.85149 4.41484
LeftLeg  30.954 -2.62827 -1.36741
LeftFoot  -8.97684 0.242733 -9.69998
LeftToes  1.06246e-005 4.65855e-005 -8.18505e-006
